<svg width="20" height="22" viewBox="0 0 20 22" fill="none" xmlns="http://www.w3.org/2000/svg">
<path d="M17.5327 11.4519C17.161 11.2497 16.7641 11.0977 16.3524 11C16.7641 10.9023 17.161 10.7503 17.5327 10.5481C17.9166 10.3265 18.253 10.0315 18.5229 9.67984C18.7927 9.3282 18.9906 8.92686 19.1054 8.49872C19.2201 8.07058 19.2494 7.62404 19.1916 7.18458C19.1337 6.74513 18.9899 6.32137 18.7683 5.9375C18.5467 5.55363 18.2517 5.21717 17.9 4.94732C17.5484 4.67748 17.147 4.47953 16.7189 4.3648C16.2908 4.25006 15.8442 4.22077 15.4048 4.27861C14.9653 4.33644 14.5416 4.48027 14.1577 4.70187C13.797 4.92333 13.467 5.19125 13.1761 5.49875C13.297 5.09306 13.3639 4.67318 13.3749 4.25C13.3749 3.35489 13.0193 2.49645 12.3864 1.86351C11.7534 1.23058 10.895 0.875 9.99987 0.875C9.10476 0.875 8.24632 1.23058 7.61338 1.86351C6.98045 2.49645 6.62487 3.35489 6.62487 4.25C6.63587 4.67318 6.7027 5.09306 6.82362 5.49875C6.53277 5.19125 6.20276 4.92333 5.84206 4.70187C5.06679 4.25432 4.1455 4.13307 3.28084 4.3648C2.41618 4.59652 1.67898 5.16224 1.23143 5.9375C0.783878 6.71276 0.662627 7.63406 0.894352 8.49872C1.12608 9.36338 1.69179 10.1006 2.46706 10.5481C2.83876 10.7503 3.23567 10.9023 3.64737 11C3.23567 11.0977 2.83876 11.2497 2.46706 11.4519C1.69179 11.8994 1.12608 12.6366 0.894352 13.5013C0.662627 14.3659 0.783878 15.2872 1.23143 16.0625C1.67898 16.8378 2.41618 17.4035 3.28084 17.6352C4.1455 17.8669 5.06679 17.7457 5.84206 17.2981C6.20276 17.0767 6.53277 16.8088 6.82362 16.5012C6.7027 16.9069 6.63587 17.3268 6.62487 17.75C6.62487 18.6451 6.98045 19.5035 7.61338 20.1365C8.24632 20.7694 9.10476 21.125 9.99987 21.125C10.895 21.125 11.7534 20.7694 12.3864 20.1365C13.0193 19.5035 13.3749 18.6451 13.3749 17.75C13.3639 17.3268 13.297 16.9069 13.1761 16.5012C13.467 16.8088 13.797 17.0767 14.1577 17.2981C14.6703 17.5955 15.2525 17.7521 15.8452 17.7519C16.1419 17.7514 16.4372 17.712 16.7236 17.6347C17.3697 17.4627 17.9501 17.1028 18.3913 16.6005C18.8324 16.0982 19.1145 15.4762 19.2017 14.8133C19.2888 14.1505 19.1772 13.4767 18.8809 12.8774C18.5846 12.2781 18.117 11.7803 17.5374 11.4472L17.5327 11.4519ZM14.5327 5.35156C15.1356 5.00347 15.8522 4.90915 16.5247 5.08936C17.1972 5.26957 17.7705 5.70955 18.1186 6.3125C18.4667 6.91545 18.561 7.63199 18.3808 8.30449C18.2006 8.97698 17.7606 9.55034 17.1577 9.89844C16.5061 10.2734 15.2996 10.5228 13.6477 10.6241L13.3514 10.6081C13.2978 10.1518 13.1516 9.71116 12.9217 9.3133C12.6919 8.91545 12.3832 8.56872 12.0146 8.29437C12.0605 8.20062 12.1083 8.11625 12.1496 8.02813C13.0627 6.64906 13.8811 5.72844 14.5327 5.35156ZM9.99987 13.625C9.48069 13.625 8.97317 13.471 8.5415 13.1826C8.10982 12.8942 7.77336 12.4842 7.57468 12.0045C7.376 11.5249 7.32402 10.9971 7.42531 10.4879C7.52659 9.97869 7.7766 9.51096 8.14371 9.14384C8.51083 8.77673 8.97855 8.52672 9.48775 8.42544C9.99695 8.32415 10.5248 8.37614 11.0044 8.57482C11.4841 8.7735 11.894 9.10995 12.1825 9.54163C12.4709 9.97331 12.6249 10.4808 12.6249 11C12.6249 11.6962 12.3483 12.3639 11.856 12.8562C11.3637 13.3484 10.6961 13.625 9.99987 13.625ZM9.99987 1.625C10.6961 1.625 11.3637 1.90156 11.856 2.39384C12.3483 2.88613 12.6249 3.55381 12.6249 4.25C12.6249 5 12.2367 6.17188 11.4999 7.65313C11.4455 7.73469 11.3921 7.81719 11.3377 7.90156C10.9156 7.71911 10.4606 7.62499 10.0008 7.62499C9.54098 7.62499 9.08601 7.71911 8.66393 7.90156C8.60956 7.81719 8.55612 7.73469 8.50174 7.65313C7.76299 6.17188 7.37487 5 7.37487 4.25C7.37487 3.55381 7.65143 2.88613 8.14371 2.39384C8.636 1.90156 9.30367 1.625 9.99987 1.625ZM2.84206 9.89844C2.2391 9.55034 1.79913 8.97698 1.61892 8.30449C1.4387 7.63199 1.53302 6.91545 1.88112 6.3125C2.22922 5.70955 2.80258 5.26957 3.47507 5.08936C4.14756 4.90915 4.8641 5.00347 5.46706 5.35156C6.11862 5.72656 6.93706 6.64906 7.85018 8.02813C7.89424 8.11625 7.94393 8.20437 7.98518 8.29437C7.61658 8.56872 7.30788 8.91545 7.078 9.3133C6.84812 9.71116 6.7019 10.1518 6.64831 10.6081L6.35206 10.6241C4.70018 10.5228 3.49362 10.2744 2.84206 9.89844ZM5.46706 16.6484C5.1685 16.8208 4.83893 16.9327 4.49714 16.9777C4.15535 17.0226 3.80806 16.9999 3.47507 16.9106C3.14209 16.8214 2.82994 16.6675 2.55645 16.4576C2.28295 16.2477 2.05348 15.9861 1.88112 15.6875C1.70876 15.3889 1.59689 15.0594 1.5519 14.7176C1.50691 14.3758 1.52968 14.0285 1.61892 13.6955C1.70815 13.3625 1.86209 13.0504 2.07196 12.7769C2.28182 12.5034 2.5435 12.2739 2.84206 12.1016C3.49831 11.7266 4.70018 11.4772 6.35206 11.3759L6.64831 11.3919C6.7019 11.8482 6.84812 12.2888 7.078 12.6867C7.30788 13.0846 7.61658 13.4313 7.98518 13.7056C7.93924 13.7994 7.89143 13.8837 7.85018 13.9719C6.93706 15.3509 6.11862 16.2716 5.46706 16.6484ZM9.99987 20.375C9.30367 20.375 8.636 20.0984 8.14371 19.6062C7.65143 19.1139 7.37487 18.4462 7.37487 17.75C7.37487 17 7.76299 15.8281 8.49987 14.3469C8.55424 14.2653 8.60768 14.1828 8.66206 14.0984C9.08414 14.2809 9.5391 14.375 9.99893 14.375C10.4588 14.375 10.9137 14.2809 11.3358 14.0984C11.3902 14.1828 11.4436 14.2653 11.498 14.3469C12.2358 15.8281 12.623 16.9972 12.623 17.75C12.623 18.4459 12.3467 19.1133 11.8548 19.6055C11.3629 20.0977 10.6957 20.3745 9.99987 20.375ZM18.1186 15.6875C17.9463 15.9861 17.7168 16.2478 17.4433 16.4576C17.1698 16.6675 16.8577 16.8215 16.5247 16.9107C16.1917 16.9999 15.8444 17.0227 15.5026 16.9777C15.1608 16.9327 14.8312 16.8208 14.5327 16.6484C13.8811 16.2734 13.0627 15.3509 12.1496 13.9719C12.1055 13.8837 12.0558 13.7956 12.0146 13.7056C12.3832 13.4313 12.6919 13.0846 12.9217 12.6867C13.1516 12.2888 13.2978 11.8482 13.3514 11.3919L13.6477 11.3759C15.2996 11.4772 16.5061 11.7256 17.1577 12.1016C17.4562 12.2739 17.7179 12.5034 17.9278 12.7769C18.1377 13.0504 18.2916 13.3625 18.3809 13.6955C18.4701 14.0285 18.4929 14.3758 18.4479 14.7176C18.4029 15.0594 18.291 15.389 18.1186 15.6875Z" fill="#F45D94"/>
</svg>
