<svg width="24" height="24" viewBox="0 0 24 24" fill="none" xmlns="http://www.w3.org/2000/svg">
<path d="M18.2204 20.75H5.78043C5.43365 20.7359 5.09305 20.6535 4.77814 20.5075C4.46323 20.3616 4.18018 20.155 3.94519 19.8996C3.7102 19.6442 3.52788 19.3449 3.40867 19.019C3.28945 18.693 3.23568 18.3468 3.25043 18V15C3.25043 14.8011 3.32945 14.6103 3.4701 14.4697C3.61075 14.329 3.80152 14.25 4.00043 14.25C4.19934 14.25 4.39011 14.329 4.53076 14.4697C4.67141 14.6103 4.75043 14.8011 4.75043 15V18C4.72461 18.2969 4.81407 18.5924 5.00026 18.8251C5.18645 19.0579 5.45508 19.21 5.75043 19.25H18.2204C18.5158 19.21 18.7844 19.0579 18.9706 18.8251C19.1568 18.5924 19.2463 18.2969 19.2204 18V15C19.2204 14.8011 19.2995 14.6103 19.4401 14.4697C19.5808 14.329 19.7715 14.25 19.9704 14.25C20.1693 14.25 20.3601 14.329 20.5008 14.4697C20.6414 14.6103 20.7204 14.8011 20.7204 15V18C20.7504 18.6954 20.5045 19.3744 20.0363 19.8894C19.5681 20.4045 18.9155 20.7137 18.2204 20.75Z" fill="#424446"/>
<path d="M12.0008 15.7498C11.9023 15.7503 11.8046 15.7311 11.7136 15.6933C11.6226 15.6555 11.5401 15.6 11.4708 15.5298L7.47082 11.5298C7.33834 11.3877 7.26622 11.1996 7.26965 11.0053C7.27308 10.811 7.35179 10.6256 7.4892 10.4882C7.62661 10.3508 7.812 10.2721 8.0063 10.2687C8.2006 10.2652 8.38865 10.3374 8.53082 10.4698L12.0008 13.9398L15.4708 10.4698C15.613 10.3374 15.801 10.2652 15.9953 10.2687C16.1896 10.2721 16.375 10.3508 16.5124 10.4882C16.6499 10.6256 16.7286 10.811 16.732 11.0053C16.7354 11.1996 16.6633 11.3877 16.5308 11.5298L12.5308 15.5298C12.4616 15.6 12.379 15.6555 12.288 15.6933C12.197 15.7311 12.0994 15.7503 12.0008 15.7498Z" fill="#424446"/>
<path d="M12 15.75C11.8019 15.7474 11.6126 15.6676 11.4725 15.5275C11.3324 15.3874 11.2526 15.1981 11.25 15V4C11.25 3.80109 11.329 3.61032 11.4697 3.46967C11.6103 3.32902 11.8011 3.25 12 3.25C12.1989 3.25 12.3897 3.32902 12.5303 3.46967C12.671 3.61032 12.75 3.80109 12.75 4V15C12.7474 15.1981 12.6676 15.3874 12.5275 15.5275C12.3874 15.6676 12.1981 15.7474 12 15.75Z" fill="#424446"/>
</svg>
