<svg width="20" height="19" viewBox="0 0 20 19" fill="none" xmlns="http://www.w3.org/2000/svg">
<path d="M10 18.3249C9.76667 18.3249 9.52933 18.2832 9.288 18.1999C9.04667 18.1166 8.834 17.9832 8.65 17.7999L6.925 16.2249C5.15833 14.6082 3.56233 13.0042 2.137 11.4129C0.711667 9.82157 -0.000666199 8.06723 4.67508e-07 6.1499C4.67508e-07 4.58324 0.525001 3.2749 1.575 2.2249C2.625 1.1749 3.93333 0.649902 5.5 0.649902C6.38333 0.649902 7.21667 0.837235 8 1.2119C8.78333 1.58657 9.45 2.09924 10 2.7499C10.55 2.0999 11.2167 1.58757 12 1.2129C12.7833 0.838236 13.6167 0.650569 14.5 0.649902C16.0667 0.649902 17.375 1.1749 18.425 2.2249C19.475 3.2749 20 4.58324 20 6.1499C20 8.06657 19.2917 9.8249 17.875 11.4249C16.4583 13.0249 14.85 14.6332 13.05 16.2499L11.35 17.7999C11.1667 17.9832 10.9543 18.1166 10.713 18.1999C10.4717 18.2832 10.234 18.3249 10 18.3249ZM9.05 4.7499C8.56667 4.06657 8.05 3.54557 7.5 3.1869C6.95 2.82824 6.28333 2.64924 5.5 2.6499C4.5 2.6499 3.66667 2.98324 3 3.6499C2.33333 4.31657 2 5.1499 2 6.1499C2 7.01657 2.30833 7.93757 2.925 8.9129C3.54167 9.88824 4.27933 10.8339 5.138 11.7499C5.99667 12.6659 6.88 13.5242 7.788 14.3249C8.696 15.1256 9.43333 15.7839 10 16.2999C10.5667 15.7832 11.3043 15.1249 12.213 14.3249C13.1217 13.5249 14.005 12.6666 14.863 11.7499C15.721 10.8332 16.4583 9.88757 17.075 8.9129C17.6917 7.93824 18 7.01724 18 6.1499C18 5.1499 17.6667 4.31657 17 3.6499C16.3333 2.98324 15.5 2.6499 14.5 2.6499C13.7167 2.6499 13.05 2.82924 12.5 3.1879C11.95 3.54657 11.4333 4.06724 10.95 4.7499C10.8333 4.91657 10.6917 5.04157 10.525 5.1249C10.3583 5.20824 10.1833 5.2499 10 5.2499C9.81667 5.2499 9.64167 5.20824 9.475 5.1249C9.30833 5.04157 9.16667 4.91657 9.05 4.7499Z" fill="#424446"/>
</svg>
